:SAMPLES-PER-SECOND 30
:FRAME-RANGE 1-2775
:FULLY-SPECIFIED
:DEGREES
1475
root  -10.8282 39.0559 6.72472 3.99579 26.3031 1.1824
RightUpLeg  -0.921433 -10.7084 -4.43595
RightLeg  20.7495 -20.376 -8.48389
RightFoot  -15.6616 0.413179 13.7237
RightToes  1.218e-010 1.26228e-014 -6.01869e-014
Spine  -8.27366 -0.421617 -1.53384
Spine1  8.97157 -0.00170895 -1.87545
HEad  17.245 2.09934 2.53286
LeftShoulder1  0.334901 2.18991 -24.043
LeftArm  -0.33867 10.2776 -44.1976
LeftForeArm  22.0975 1.69305 -13.1988
LeftHand  -0.0170766 5.6689 3.9292
RightShoulder  1.02499 0.0293152 24.5179
RightArm  -29.4502 -6.16394 52.1505
RightForeArm  62.3669 -5.33764 2.02333
RightHand  0.342362 -7.61438 -18.5972
LeftUpLeg  -11.8794 11.0433 12.4684
LeftLeg  5.13141 26.2866 3.20465
LeftFoot  10.5304 1.80226 -9.64494
LeftToes  5.08156e-010 -6.90346e-011 -6.33378e-011
1476
root  -11.7668 39.0615 6.83782 2.3811 22.4506 -0.25882
RightUpLeg  -0.412984 -12.9416 -2.79898
RightLeg  19.5687 -14.8136 -5.96329
RightFoot  -16.4877 0.371594 10.7357
RightToes  1.218e-010 1.26228e-014 -6.01869e-014
Spine  -8.27415 -0.45187 0.20984
Spine1  10.0091 -0.270627 -1.23172
HEad  17.8088 3.39147 1.70199
LeftShoulder1  0.590274 1.31822 -23.6979
LeftArm  0.186826 7.76233 -44.1432
LeftForeArm  22.9381 -0.0691644 -13.1364
LeftHand  -0.0124974 5.64914 5.46809
RightShoulder  1.20485 0.653732 24.2424
RightArm  -24.6132 0.313833 50.7863
RightForeArm  67.7626 -5.47702 4.0323
RightHand  0.406149 -7.97293 -18.869
LeftUpLeg  -10.212 12.7265 15.624
LeftLeg  6.33392 27.3165 4.17458
LeftFoot  7.43982 1.66438 -10.318
LeftToes  5.08156e-010 -6.90346e-011 -6.33378e-011
1477
root  -12.6712 39.0816 6.9434 1.61469 18.4581 -1.34976
RightUpLeg  -0.355566 -11.6231 -0.613071
RightLeg  18.5441 -12.6583 -4.74524
RightFoot  -16.7502 0.288251 8.49738
RightToes  1.218e-010 1.26228e-014 -6.01869e-014
Spine  -8.57134 -0.248949 1.51086
Spine1  10.5465 -0.321499 -0.186673
HEad  19.364 3.21351 1.3288
LeftShoulder1  0.802299 0.494587 -22.4735
LeftArm  -0.643159 5.4778 -44.873
LeftForeArm  23.66 -0.487239 -12.7765
LeftHand  -0.0135352 5.62961 5.40267
RightShoulder  1.33814 1.11951 24.0677
RightArm  -21.7054 6.43152 50.1526
RightForeArm  67.5927 -5.68088 5.22827
RightHand  0.399946 -7.84979 -19.4626
LeftUpLeg  -9.56863 13.1038 18.0202
LeftLeg  8.87329 27.8772 6.2116
LeftFoot  2.03972 1.31616 -11.2983
LeftToes  5.08156e-010 -6.90346e-011 -6.33378e-011
1478
root  -13.5346 39.0987 7.09318 1.52811 14.8559 -1.22049
RightUpLeg  -0.629378 -9.5847 0.577781
RightLeg  18.3242 -11.4903 -4.16216
RightFoot  -17.1384 0.213041 6.49843
RightToes  1.218e-010 1.26228e-014 -6.01869e-014
Spine  -8.39786 -0.2559 1.36746
Spine1  9.99379 -0.425011 0.45581
HEad  22.0108 2.67972 1.51122
LeftShoulder1  0.884759 0.00659215 -20.642
LeftArm  -1.82476 4.27274 -45.9104
LeftForeArm  23.8689 -0.8781 -12.323
LeftHand  -0.014665 5.62928 5.05118
RightShoulder  1.40348 1.34717 23.9995
RightArm  -20.4551 10.685 50.3222
RightForeArm  65.2801 -5.83614 5.64976
RightHand  0.348701 -7.61021 -18.9312
LeftUpLeg  -10.3285 10.2799 18.6
LeftLeg  12.7483 26.1994 8.04493
LeftFoot  -2.46768 0.426391 -5.30304
LeftToes  5.08156e-010 -6.90346e-011 -6.33378e-011
1479
root  -14.263 39.1256 7.27338 1.39447 11.9071 -0.921356
RightUpLeg  -0.478951 -7.37823 1.43881
RightLeg  18.0168 -11.1487 -3.77693
RightFoot  -17.3269 0.143221 4.98377
RightToes  1.218e-010 1.26228e-014 -6.01869e-014
Spine  -7.76516 -0.362531 1.43509
Spine1  9.01547 -0.623369 1.1351
HEad  24.4538 2.62337 1.66498
LeftShoulder1  0.98058 -0.477321 -19.6823
LeftArm  -2.17845 3.20675 -46.1546
LeftForeArm  22.538 -1.28786 -12.1539
LeftHand  -0.020634 5.47602 5.04171
RightShoulder  1.40959 1.39475 23.816
RightArm  -20.5383 13.2312 51.114
RightForeArm  62.3506 -5.88942 5.33363
RightHand  0.257652 -7.12157 -18.2249
LeftUpLeg  -11.5862 6.36503 18.5601
LeftLeg  16.5322 20.0584 7.07281
LeftFoot  -4.0398 0.13948 -1.80542
LeftToes  5.08156e-010 -6.90346e-011 -6.33378e-011
1480
root  -14.8877 39.1474 7.49681 1.54025 8.81543 -0.243195
RightUpLeg  -0.360811 -6.29097 1.46043
RightLeg  17.6403 -9.50544 -2.92287
RightFoot  -17.6837 0.0816008 3.63445
RightToes  1.218e-010 1.26228e-014 -6.01869e-014
Spine  -7.41693 -0.165399 1.86369
Spine1  8.35777 -0.378277 1.2862
HEad  25.9318 3.01854 2.04493
LeftShoulder1  1.05358 -0.856375 -19.0315
LeftArm  -2.20076 1.99529 -46.286
LeftForeArm  21.4655 -1.40725 -12.1243
LeftHand  -0.0300197 5.23365 5.0282
RightShoulder  1.41725 1.47448 23.4588
RightArm  -21.5654 14.5753 52.517
RightForeArm  58.2888 -5.89616 4.53881
RightHand  0.162109 -6.51753 -18.0999
LeftUpLeg  -12.9885 4.92299 16.8831
LeftLeg  19.4087 11.5687 4.80821
LeftFoot  -5.54768 0.242061 -4.12514
LeftToes  5.08156e-010 -6.90346e-011 -6.33378e-011
1481
root  -15.4332 39.1806 7.71495 1.82303 4.99286 0.522369
RightUpLeg  -0.376604 -5.82353 1.03705
RightLeg  17.1724 -6.37016 -1.73875
RightFoot  -17.9179 0.00184126 2.14351
RightToes  1.218e-010 1.26228e-014 -6.01869e-014
Spine  -6.80596 0.46972 2.83473
Spine1  7.70348 0.41109 0.727645
HEad  26.2865 4.01682 2.39873
LeftShoulder1  1.00776 -0.71649 -18.7518
LeftArm  -2.5124 0.796947 -46.5697
LeftForeArm  21.9567 -1.59671 -11.9704
LeftHand  -0.0307552 5.20873 4.58982
RightShoulder  1.47811 1.77751 22.8658
RightArm  -22.1816 14.9014 54.1248
RightForeArm  53.474 -2.63543 4.62266
RightHand  0.0646172 -5.88406 -18.1792
LeftUpLeg  -14.2538 3.51766 14.3146
LeftLeg  21.5395 6.71505 3.23677
LeftFoot  -6.16269 0.278009 -5.32859
LeftToes  5.08156e-010 -6.90346e-011 -6.33378e-011
1482
root  -15.9223 39.2157 7.96102 2.13092 1.13873 1.25626
RightUpLeg  -0.433136 -4.87433 0.783875
RightLeg  16.814 -3.69513 -1.11593
RightFoot  -18.0598 -0.0595035 1.06866
RightToes  1.218e-010 1.26228e-014 -6.01869e-014
Spine  -6.07692 1.15206 3.85251
Spine1  7.12396 1.22715 -0.027806
HEad  25.508 5.52334 2.51609
LeftShoulder1  0.968458 -0.560306 -18.7462
LeftArm  -2.59775 0.585839 -46.9152
LeftForeArm  22.0783 -2.50221 -11.8607
LeftHand  -0.0317225 5.18226 4.65281
RightShoulder  1.56321 2.19849 22.1596
RightArm  -22.8865 14.6814 56.0556
RightForeArm  49.722 0.892106 4.76389
RightHand  0.042502 -5.75179 -17.8027
LeftUpLeg  -15.8964 1.73049 11.3161
LeftLeg  23.5108 5.83564 3.10217
LeftFoot  -7.00205 0.248399 -5.4466
LeftToes  5.08156e-010 -6.90346e-011 -6.33378e-011
1483
root  -16.3733 39.2265 8.25914 2.51385 -2.47858 1.97098
RightUpLeg  -0.642775 -4.03342 0.478463
RightLeg  16.7696 -1.1403 -0.593911
RightFoot  -18.3287 -0.122175 0.0300111
RightToes  1.218e-010 1.26228e-014 -6.01869e-014
Spine  -5.58896 1.66888 4.63377
Spine1  6.94152 1.81904 -0.674565
HEad  24.0417 7.63057 2.46696
LeftShoulder1  0.915745 -0.317247 -18.9884
LeftArm  -1.75579 1.00367 -47.0297
LeftForeArm  21.7828 -3.62952 -11.9386
LeftHand  -0.037877 5.01676 4.79378
RightShoulder  1.64633 2.57768 21.7265
RightArm  -23.3021 15.283 57.8678
RightForeArm  47.5026 2.75694 4.71527
RightHand  -0.0764799 -4.95787 -17.3025
LeftUpLeg  -18.0807 -0.44136 8.06498
LeftLeg  25.0641 8.23689 4.51055
LeftFoot  -6.96404 0.250579 -5.46223
LeftToes  5.08156e-010 -6.90346e-011 -6.33378e-011
1484
root  -16.7942 39.2118 8.60779 2.89984 -5.74493 2.59109
RightUpLeg  -0.798026 -2.93745 0.260398
RightLeg  16.8237 0.861709 -0.236068
RightFoot  -18.7209 -0.173523 -0.727053
RightToes  1.218e-010 1.26228e-014 -6.01869e-014
Spine  -4.96664 2.03917 5.09507
Spine1  6.65218 2.1731 -0.896595
HEad  22.5675 10.1713 2.34359
LeftShoulder1  0.863488 -0.0829419 -19.2087
LeftArm  0.864429 1.74217 -47.1073
LeftForeArm  20.545 -4.53148 -12.4063
LeftHand  -0.0486966 4.6701 4.44162
RightShoulder  1.70644 2.81752 21.6121
RightArm  -22.3183 16.1236 59.2493
RightForeArm  45.9574 3.79964 5.22406
RightHand  -0.131712 -4.57691 -17.176
LeftUpLeg  -20.5676 -2.22504 4.78302
LeftLeg  25.7072 10.8787 5.98102
LeftFoot  -6.16537 0.250678 -4.72678
LeftToes  5.08156e-010 -6.90346e-011 -6.33378e-011
1485
root  -17.2142 39.1817 9.01199 3.15488 -8.99869 2.91986
RightUpLeg  -0.568719 -1.91756 0.236562
RightLeg  16.6458 2.83487 0.189929
RightFoot  -19.091 -0.228553 -1.46793
RightToes  1.218e-010 1.26228e-014 -6.01869e-014
Spine  -4.49413 2.4525 5.65505
Spine1  6.94886 2.55045 -1.0314
HEad  20.7164 12.9067 2.2661
LeftShoulder1  0.851049 -0.0196865 -19.3275
LeftArm  1.71263 2.88577 -47.4966
LeftForeArm  21.6626 -4.57991 -12.5765
LeftHand  -0.0471748 4.67525 4.18182
RightShoulder  1.78242 3.07898 21.6723
RightArm  -21.6422 17.0607 60.2718
RightForeArm  46.427 4.73268 5.54763
RightHand  -0.191297 -4.13721 -16.7313
LeftUpLeg  -22.694 -2.99825 1.85945
LeftLeg  24.6313 12.0238 6.28084
LeftFoot  -4.8521 0.30711 -4.9027
LeftToes  5.08156e-010 -6.90346e-011 -6.33378e-011
1486
root  -17.6372 39.1384 9.50655 3.255 -12.3781 3.27585
RightUpLeg  0.05722 -0.824388 0.0977045
RightLeg  16.3119 4.92852 0.573242
RightFoot  -19.5662 -0.280418 -2.05945
RightToes  1.218e-010 1.26228e-014 -6.01869e-014
Spine  -4.08707 2.87439 5.99929
Spine1  7.4895 2.96313 -1.15163
HEad  19.0027 15.6778 2.10715
LeftShoulder1  0.813347 0.142139 -19.453
LeftArm  1.85451 4.27193 -47.8183
LeftForeArm  24.4301 -3.84263 -12.7825
LeftHand  -0.0486055 4.49536 3.56534
RightShoulder  1.87717 3.36942 21.8997
RightArm  -21.483 17.8651 61.0497
RightForeArm  47.7809 5.66438 5.63306
RightHand  -0.220494 -3.87677 -16.1141
LeftUpLeg  -24.3869 -3.56596 -0.935317
LeftLeg  21.964 12.3528 5.7461
LeftFoot  -3.4122 0.362579 -4.93508
LeftToes  5.08156e-010 -6.90346e-011 -6.33378e-011
